<svg width="600" height="300" viewBox="0 0 600 300" xmlns="http://www.w3.org/2000/svg">
  <style>
    /* 原理说明：
       为了无缝，动画必须移动正好一个"周期"的宽度。
       这里我们的周期宽度是 600px。
    */
    @keyframes scroll {
      0% { transform: translateX(0); }
      100% { transform: translateX(-600px); }
    }

    .layer-stars { animation: scroll 60s linear infinite; }
    .layer-mountains { animation: scroll 20s linear infinite; }
    .layer-ground { animation: scroll 6s linear infinite; }
  </style>

  <rect width="100%" height="100%" fill="#0f172a" />

  <g class="layer-stars">
    <g id="stars-group">
      <circle cx="50" cy="50" r="2" fill="white" opacity="0.8"/>
      <circle cx="200" cy="80" r="1.5" fill="white" opacity="0.6"/>
      <circle cx="450" cy="40" r="2" fill="white" opacity="0.7"/>
      <circle cx="550" cy="120" r="1" fill="white" opacity="0.5"/>
      <circle cx="300" cy="20" r="1.5" fill="white" opacity="0.9"/>
      <circle cx="580" cy="90" r="1.5" fill="white" opacity="0.6"/>
    </g>
    <use href="#stars-group" x="600" />
  </g>

  <g class="layer-mountains">
    <g id="mountain-group">
      <path d="M0,300 L100,100 L200,300 Z" fill="#334155" />
      <path d="M200,300 L300,150 L400,300 Z" fill="#475569" />
      <path d="M400,300 L500,120 L600,300 Z" fill="#334155" />
    </g>
    <use href="#mountain-group" x="600" />
  </g>

  <g class="layer-ground">
    <g id="ground-group">
      <path d="M0,300 Q150,260 300,300 T600,300 V350 H0 Z" fill="#1e293b" />
      
      <g transform="translate(50, 260)">
        <rect width="10" height="40" fill="#0f172a"/>
        <circle cx="5" cy="-10" r="20" fill="#0f172a"/>
      </g>
      
      <g transform="translate(400, 270)">
        <rect width="8" height="30" fill="#0f172a"/>
        <circle cx="4" cy="-10" r="15" fill="#0f172a"/>
      </g>
    </g>
    <use href="#ground-group" x="600" />
  </g>

  <text x="300" y="50" text-anchor="middle" fill="white" font-family="sans-serif" font-size="20" font-weight="bold" letter-spacing="4" style="text-shadow: 0 0 10px #38bdf8;">
    Welcome to Revaea!
  </text>
</svg>
